<?xml version="1.0" encoding="UTF-8" standalone="no"?>
<svg width="64px" height="63px" viewBox="0 0 64 63" version="1.1" xmlns="http://www.w3.org/2000/svg" xmlns:xlink="http://www.w3.org/1999/xlink" xmlns:sketch="http://www.bohemiancoding.com/sketch/ns">
    <!-- Generator: Sketch 3.0.3 (7891) - http://www.bohemiancoding.com/sketch -->
    <title>Mountain-volcano</title>
    <desc>Created with Sketch.</desc>
    <defs></defs>
    <g id="Page-1" stroke="none" stroke-width="1" fill="none" fill-rule="evenodd" sketch:type="MSPage">
        <g id="Mountain-volcano" sketch:type="MSLayerGroup" transform="translate(3.000000, 1.000000)" stroke="#6B6C6E" stroke-width="2">
            <path d="M52,0 C49.2,0 46.7,1.9 45.6,4.5 L45,4.5 C42.4,4.5 40.3,6.5 40,9.1 C38.1,9.6 36.6,11.5 36.6,13.7 C36.6,14.2 36.7,14.6 36.8,15 L36.6,15 C35.3,15 34.2,16.1 34.2,17.5 C34.2,18.9 35.3,20 36.6,20 C37.8,20 38.8,19 39,17.8 C39.6,18.2 40.4,18.4 41.2,18.4 C43,18.4 44.5,17.3 45.3,15.8 C46,16.3 46.9,16.6 47.9,16.6 C49.7,16.6 51.2,15.5 51.9,14 C56,13.8 59.1,11.3 59.1,7.5 C59,3.4 55.8,0 52,0 L52,0 Z" id="Shape" sketch:type="MSShapeGroup"></path>
            <path d="M58.6,61 L37.4,24 L31,24 L19.5,44.1 L14.4,37.2 L-0.5,61 L58.6,61 Z" id="Shape" sketch:type="MSShapeGroup"></path>
            <path d="M43.1,35.5 L39.1,40.2 L34.2,37.2 L30.2,40.2 L25.3,35.2" id="Shape" sketch:type="MSShapeGroup"></path>
        </g>
    </g>
</svg>